

<svg xmlns="http://www.w3.org/2000/svg" version="1.0" viewBox="167.6 149.08 27.89 76.77"> 
 <g fill="none"><g><g><path d="M 3.671875 0 L 1.890625 0 L 1.890625 -11.78125 L 3.671875 -11.78125 Z M 1.734375 -14.96875  C 1.734375 -15.375 1.832031 -15.671875 2.03125 -15.859375 C 2.238281 -16.046875 2.492188 -16.140625 2.796875 -16.140625 C  3.078125 -16.140625 3.320312 -16.039062 3.53125 -15.84375 C 3.738281 -15.65625 3.84375 -15.363281 3.84375 -14.96875 C 3.84375  -14.5625 3.738281 -14.257812 3.53125 -14.0625 C 3.320312 -13.863281 3.078125 -13.765625 2.796875 -13.765625 C 2.492188 -13.765625 2.238281 -13.863281 2.03125 -14.0625 C 1.832031 -14.257812 1.734375 -14.5625 1.734375 -14.96875 Z M 1.734375 -14.96875" transform="translate(172.69 202.4)"></path></g></g></g>  <g fill="#004AAD"><g><g><path d="M 9.953125 0 L 9.953125 -7.609375 C 9.953125 -8.578125 9.734375 -9.296875 9.296875  -9.765625 C 8.859375 -10.234375 8.171875 -10.46875 7.234375 -10.46875 C 5.992188 -10.46875 5.085938 -10.128906 4.515625 -9.453125 C 3.953125 -8.785156 3.671875 -7.6875 3.671875 -6.15625 L 3.671875 0 L 1.890625 0 L 1.890625 -16.71875 L 3.671875 -16.71875 L 3.671875 -11.65625 C 3.671875 -11.050781 3.644531 -10.546875 3.59375 -10.140625 L 3.703125 -10.140625 C 4.046875 -10.703125 4.539062 -11.144531 5.1875 -11.46875 C 5.84375 -11.800781 6.582031 -11.96875  7.40625 -11.96875 C 8.851562 -11.96875 9.9375 -11.625 10.65625 -10.9375 C 11.375 -10.257812 11.734375 -9.175781 11.734375 -7.6875 L 11.734375 0 Z M 9.953125 0" transform="translate(178.254 202.4)"></path></g></g></g>  <g fill="#D9D9D9"><g><g><path d="M 3.296875 20.09375 L 11.640625 1.34375 L 14.828125 1.34375 L 24.21875 20.09375 L  18.703125 20.09375 L 13.453125 8.59375 L 8.78125 20.09375 Z M 3.296875 20.09375" transform="translate(167.972 147.741)"></path> </g></g></g><g fill="#D9D9D9"><g><g><path d="M 27.515625 16.71875 L -0.375 6.609375 L -0.375 0.1875 L 27.515625 10.296875  Z M 27.515625 16.71875" transform="translate(167.972 169.242)"></path></g></g></g>  <g fill="#D9D9D9"><g><g><path d="M 8.78125 1.34375 L 13.453125 12.84375 L 18.703125 1.34375 L 24.21875 1.34375 L 14.828125 20.09375L 11.640625 20.09375 L 3.296875 1.34375 Z M 8.78125 1.34375" transform="translate(167.972 205.76)"></path></g></g></g>  </svg>